<?xml version="1.0"?>
<svg xmlns="http://www.w3.org/2000/svg" width="255" height="167">
<path d="M 94,92 V 98 L 85,101 79,96 81,100 86,102 87,106 V 111 L 98,127 92,131 H 96 L 99,150 V 133 L 102,131 100,129 88,109 H 91 L 108,122 114,123 V 126 L 109,133 108,137 107,158 76,157 80,132 61,105 67,95 74,84 Z M 117,110 116,115 112,114 Z M 115,96 103,111 104,113 107,115 110,114 117,108 121,102 Z M 105,87 113,93 V 95 L 102,110 99,109 93.7,106 Z M 96,79 104,84 V 86 L 98,95 96,97 V 91 L 89,88 Z M 85,73 93,78 87,87 77,83 Z M 6,0 4,7 0,13 73,68 67,77 V 85 L 69,89 73,84 V 80 L 77,75 80,77 85,71 95,77 H 96 L 106,83 V 86 L 115,93 V 94 L 123,102 120,107 125,110 121,115 117,116 111,115 107,117 103,114 102,111 98,110 92,106 94,102 92,100 87,102 89,106 109,121 117,122 124,120 132,111 208,167 223,143 236,121 246,98 255,72 Z M 253,73 245,97 235,120 222,142 208,164 217,139 228,117 240,94 Z" style="fill:white" />
</svg>
